<svg width='24' height='24' viewBox='0 0 24 24' xmlns='http://www.w3.org/2000/svg' xmlns:xlink='http://www.w3.org/1999/xlink'><rect width='24' height='24' stroke='none' fill='#000000' opacity='0'/>


<g transform="matrix(0.43 0 0 0.43 12 12)" >
<path style="stroke: none; stroke-width: 1; stroke-dasharray: none; stroke-linecap: butt; stroke-dashoffset: 0; stroke-linejoin: miter; stroke-miterlimit: 4; fill: rgb(0,0,0); fill-rule: nonzero; opacity: 1;" transform=" translate(-25, -24.5)" d="M 18 1 C 17.734801108383113 1.0000511250440058 17.480480657858198 1.1054325824422582 17.292969 1.2929688 L 12.802734 5.7832031 L 12.027344 5.3945312 C 12.02669300015516 5.394530564361912 12.026041999844841 5.394530564361912 12.025391 5.3945312 C 10.103815 4.4337202 7.7746048 4.8113327 6.2558594 6.3300781 C 6.221347990010078 6.36416719433089 6.189362490395511 6.400722022386204 6.160156199999999 6.439453100000001 L 3.1992188 10.400391 C 2.9452934173844443 10.739674426744404 2.9327725855140487 11.202162704040461 3.1679688 11.554688 L 4.8457031 14.072266 L 3.1054688 17.552734 C 2.987730562736918 17.788859860258913 2.968073938591828 18.061946166847942 3.0507812 18.3125 L 8.8164062 35.787109 C 8.818305006438983 35.79298663511257 8.820258223586121 35.798846553232096 8.8222656 35.804688 C 9.6977715 38.305819 11.446158 40.406297 13.746094 41.720703 L 24.503906 47.869141 C 24.811321058981402 48.04476234737628 25.188678941018598 48.04476234737628 25.496094 47.869141 L 36.253906 41.720703 C 38.555026 40.406249 40.302315 38.305571 41.177734 35.804688 C 41.17974157696461 35.79884655527281 41.18169499412205 35.79298663714813 41.183594 35.787109 L 46.949219 18.3125 C 47.03192613743969 18.06194611459731 47.012269369404294 17.788859806391148 46.894531 17.552734 L 45.154297 14.072266 L 46.832031 11.554688 C 47.06722721448595 11.202162704040461 47.05470638261556 10.739674426744404 46.800781 10.400391 L 43.839844 6.4394531 C 43.81118946187124 6.401461003606535 43.779859867097656 6.3655625012405785 43.746094 6.3320312 C 42.227348 4.813286 39.896232 4.4356732 37.974609 5.3964844 L 37.974609 5.3945312 L 37.197266 5.7832031 L 32.707031 1.2929688 C 32.5195193421418 1.1054325824422582 32.26519889161688 1.0000511250440054 32 0.9999999999999998 L 18 1 z M 18.414062 3 L 31.585938 3 L 36.292969 7.7070312 C 36.59729776193144 8.01141245701221 37.06224099823531 8.086936223258656 37.447266 7.8945312 L 38.869141 7.1855469 C 38.86914163570318 7.18489586682185 38.86914163570318 7.18424483317815 38.869141 7.1835938 C 40.019834 6.6082439 41.39515 6.8342859 42.310547 7.734375 L 44.775391 11.033203 L 43.167969 13.445312 C 42.96887646653603 13.743892899661697 42.94502525890483 14.126257905916258 43.105469 14.447266 L 44.921875 18.078125 L 39.289062 35.148438 C 38.571999 37.193709 37.143316 38.909562 35.261719 39.984375 L 25 45.847656 L 14.738281 39.984375 C 12.8575 38.909514 11.427915 37.193464 10.710938 35.148438 C 10.710448 35.147038 10.709484 35.145931 10.708984 35.144531 L 5.078125 18.078125 L 6.8945312 14.447266 C 7.054974941095169 14.126257905916258 7.0311237334639705 13.743892899661697 6.832031200000001 13.445312 L 5.2246094 11.033203 L 7.6914062 7.7324219 C 8.606803 6.8323542 9.9801772 6.6082525 11.130859 7.1835938 L 12.552734 7.8945312 C 12.937759001764686 8.086936223258657 13.402702238068553 8.01141245701221 13.707031 7.7070312 L 18.414062 3 z M 25 7.9726562 C 23.779708 7.9726562 22.558589 8.2987136 21.474609 8.9492188 C 20.407735 9.5893434 19.140757 9.807953 17.919922 9.5644531 L 17.921875 9.5664062 L 15.197266 9.0195312 C 14.782350852843747 8.93632233777798 14.359975451492414 9.123262483097788 14.142578 9.4863281 L 10.417969 15.699219 L 10.462891 15.630859 C 9.4517851 17.046407 9.4746706 18.965996 10.517578 20.357422 L 14.775391 26.035156 L 14.599609 26.298828 C 13.509648 27.934406 13.567655 30.090631 14.748047 31.664062 C 14.83214011436822 31.775360689129403 14.938586682463763 31.867836358055545 15.060547 31.935547 C 15.637533 32.604417 16.3213 33.138127 17.042969 33.498047 L 24.349609 39.759766 C 24.72398001899689 40.0802576799236 25.27601998100311 40.0802576799236 25.650391 39.759766 L 32.955078 33.498047 C 33.673893 33.139051 34.355832 32.606989 34.931641 31.941406 C 35.057187672738586 31.872329397386586 35.16642427390607 31.77708021847267 35.251953 31.662109 C 36.430877 30.088939 36.490551 27.934704 35.400391 26.298828 L 35.224609 26.033203 L 39.482422 20.357422 C 40.52688 18.965698 40.54797 17.046069 39.537109 15.630859 L 39.580078 15.699219 L 35.857422 9.4863281 C 35.64028934722277 9.124038583616436 35.21896408122313 8.93721709968953 34.804688 9.0195312 L 32.078125 9.5644531 C 30.858069 9.808631 29.592594 9.5895405 28.525391 8.9492188 C 28.446226944769904 8.901181730194637 28.360775018539325 8.864371778395475 28.271484 8.8398438 C 27.249904 8.2822939 26.129745 7.9726562 25 7.9726562 z M 25 9.9707031 C 25.863208 9.9707031 26.727074 10.202568 27.496094 10.664062 C 27.600688521347887 10.72674413776613 27.71586441160772 10.76976987890632 27.835938 10.791016 C 29.258575 11.545962 30.88344 11.84306 32.470703 11.525391 L 34.503906 11.119141 L 37.865234 16.726562 C 37.8792694740155 16.74995175548403 37.89425600601365 16.772757492703956 37.910156 16.794922 C 38.419292 17.507712 38.40835 18.455974 37.882812 19.15625 L 33.199219 25.400391 C 32.94529361738444 25.739674426744404 32.93277278551405 26.20216270404046 33.167969 26.554688 L 33.736328 27.408203 C 34.360168 28.344327 34.327416 29.562061 33.652344 30.462891 C 32.990422 31.345947 31.491333 32 31 32 C 31.1005 32 30.86574 31.96735 30.539062 31.777344 C 30.212387 31.587333 29.775805 31.283008 29.275391 30.910156 C 28.387179 30.248362 27.25046 29.364477 26 28.492188 L 26 27.566406 L 30.515625 24.857422 C 30.892625 24.630422 31.078703 24.184813 30.970703 23.757812 L 29.527344 17.986328 C 29.702344 17.710328 29.968328 17.469906 30.361328 17.253906 L 35 15 L 33 14 L 31 14 L 30.986328 14.013672 C 30.886328 14.015672 30.783594 14.017781 30.683594 14.050781 L 27.683594 15.050781 C 27.188594 15.216781 26.90425 15.736188 27.03125 16.242188 L 28.851562 23.523438 L 25 25.833984 L 21.150391 23.523438 L 22.970703 16.242188 C 23.096703 15.735188 22.812406 15.217734 22.316406 15.052734 L 19.316406 14.052734 C 19.215406 14.018734 19.114672 14.016625 19.013672 14.015625 L 19 14 L 17 14 L 15 15 L 19.638672 17.253906 C 20.031672 17.468906 20.297656 17.709375 20.472656 17.984375 L 19.029297 23.757812 C 18.923297 24.184812 19.108328 24.631422 19.486328 24.857422 L 24 27.566406 L 24 28.488281 C 22.676342 29.400101 21.521089 30.296195 20.650391 30.949219 C 20.161057 31.316219 19.742953 31.612509 19.433594 31.792969 C 19.124233 31.973381 18.916667 32 19 32 C 18.508667 32 17.009507 31.347061 16.347656 30.464844 C 15.672048 29.564275 15.639629 28.344626 16.263672 27.408203 L 16.832031 26.554688 C 17.067227214485953 26.20216270404046 17.054706382615556 25.739674426744404 16.800781 25.400391 L 12.117188 19.158203 L 12.117188 19.15625 C 11.593244 18.455827 11.581323 17.506846 12.089844 16.794922 C 12.105081035543614 16.772723024973583 12.119415381182957 16.749917777628923 12.132812 16.726562 L 15.494141 11.119141 L 17.529297 11.527344 C 19.236462 11.867844 21.010781 11.559935 22.503906 10.664062 C 23.272916 10.202615 24.136792 9.9707031 25 9.9707031 z M 24.998047 30.240234 C 26.116265 31.03049 27.193798 31.853317 28.080078 32.513672 C 28.603539 32.903695 29.080036 33.242276 29.533203 33.505859 C 29.604484 33.54732 29.675909 33.576177 29.746094 33.615234 L 25 37.683594 L 20.253906 33.615234 C 20.315544 33.580912 20.379376 33.555716 20.441406 33.519531 C 20.882047 33.262491 21.338943 32.933781 21.849609 32.550781 C 22.717534 31.899838 23.81815 31.063834 24.998047 30.240234 z" stroke-linecap="round" />
</g>
</svg>